<!--?xml version="1.0" standalone="no"?-->

<svg version="1.0" xmlns="http://www.w3.org/2000/svg" width="300.000000pt" height="300.000000pt" viewBox="0 0 300.000000 300.000000" preserveAspectRatio="xMidYMid meet">
<g transform="translate(0.000000,300.000000) scale(0.100000,-0.100000)" fill="#ffcc00" stroke="none">
<path class="node" id="node1" d="M214 2926 c-43 -19 -76 -70 -82 -125 -4 -44 -2 -50 29 -75 31 -26 34
-27 44 -11 29 49 90 118 125 140 22 14 40 29 40 34 0 16 -66 51 -96 51 -16 -1
-43 -7 -60 -14z"></path>
<path class="node" id="node2" d="M573 2893 c-17 -6 -16 -23 3 -44 25 -28 9 -54 -72 -115 -81 -61 -194
-180 -194 -204 0 -17 24 -46 107 -132 54 -58 68 -67 75 -49 8 23 109 128 180
188 47 39 78 72 78 84 0 11 7 19 18 19 17 0 451 -426 453 -445 0 -6 22 -39 48
-75 39 -54 52 -64 73 -62 13 2 31 -4 38 -12 21 -26 30 -18 30 25 0 47 6 40
-377 429 -100 102 -229 233 -287 293 -86 88 -109 107 -133 106 -15 0 -34 -3
-40 -6z"></path>
<path class="node" id="node3" d="M375 2831 c-50 -28 -115 -87 -115 -103 0 -5 -11 -26 -25 -48 -14 -22
-25 -45 -25 -52 1 -15 45 -68 57 -68 4 0 35 32 68 71 33 39 81 86 106 104 74
55 77 61 44 95 -36 37 -47 37 -110 1z"></path>
<path class="node" id="node4" d="M710 2516 c-46 -34 -174 -166 -191 -198 -8 -15 12 -40 118 -150 270
-283 1142 -1148 1156 -1148 8 0 48 29 89 64 71 61 138 147 138 178 0 8 -79 97
-176 199 -202 211 -1076 1089 -1084 1089 -3 0 -25 -15 -50 -34z"></path>




<path class="node" id="node9" d="M2060 1197 c0 -16 -128 -167 -141 -167 -14 0 -69 -52 -69 -66 0 -6
17 -27 38 -44 20 -18 96 -90 168 -159 264 -255 286 -273 317 -267 66 13 177
117 177 166 0 24 -33 65 -169 216 -25 28 -102 114 -171 192 -118 132 -150 160
-150 129z"></path>



<path class="node" id="node13" d="M2525 549 c-28 -28 -65 -58 -82 -65 -18 -8 -33 -18 -33 -22 1 -6 112
-80 318 -209 37 -23 72 -46 78 -51 16 -14 52 -32 63 -32 6 0 2 15 -9 32 -11
18 -29 49 -40 68 -11 19 -47 73 -80 120 -34 47 -80 113 -103 147 -23 35 -47
63 -52 63 -6 0 -33 -23 -60 -51z"></path>



</g>
<g transform="translate(0.000000,300.000000) scale(0.100000,-0.100000)" fill="#A1A1A1" stroke="none">

</g>
</svg>
